<svg xmlns="http://www.w3.org/2000/svg" xmlns:xlink="http://www.w3.org/1999/xlink" width="500" zoomAndPan="magnify" viewBox="0 0 375 374.999991" height="500" preserveAspectRatio="xMidYMid meet" version="1.0"><defs><clipPath id="6b2b2b1689"><path d="M 0 131.558594 L 236.527344 131.558594 L 236.527344 375 L 0 375 Z M 0 131.558594 " clip-rule="nonzero"/></clipPath><clipPath id="75575ac9f7"><path d="M 0 153.484375 L 210.15625 153.484375 L 210.15625 375 L 0 375 Z M 0 153.484375 " clip-rule="nonzero"/></clipPath><clipPath id="727fb824fd"><path d="M 289 248.84375 L 372 248.84375 L 372 375 L 289 375 Z M 289 248.84375 " clip-rule="nonzero"/></clipPath><clipPath id="456258fd30"><path d="M 6 0 L 70.730469 0 L 70.730469 106.394531 L 6 106.394531 Z M 6 0 " clip-rule="nonzero"/></clipPath><clipPath id="f4c71f7219"><path d="M 4.261719 0 L 31 0 L 31 47 L 4.261719 47 Z M 4.261719 0 " clip-rule="nonzero"/></clipPath></defs><rect x="-37.5" width="450" fill="#ffffff" y="-37.499999" height="449.999989" fill-opacity="1"/><rect x="-37.5" width="450" fill="#66cd92" y="-37.499999" height="449.999989" fill-opacity="1"/><g clip-path="url(#6b2b2b1689)"><path fill="#449b7b" d="M 229.386719 374.109375 C 224.980469 371.085938 219.882812 369.03125 214.578125 368.324219 C 207.746094 367.410156 200.703125 368.554688 193.96875 367.074219 C 185.59375 365.234375 178.273438 359.128906 174.949219 351.222656 C 173.074219 346.753906 172.371094 341.726562 169.554688 337.78125 C 160.835938 325.5625 139.695312 331.976562 128.578125 321.890625 C 121.625 315.582031 120.996094 304.847656 122.589844 295.597656 C 125.25 280.117188 132.625 265.730469 135.054688 250.214844 C 137.484375 234.695312 133.105469 216.148438 118.949219 209.34375 C 109.753906 204.917969 98.976562 206.570312 88.769531 206.613281 C 77.285156 206.65625 66.1875 204.609375 55.472656 200.472656 C 50.1875 198.429688 44.96875 195.804688 41.140625 191.628906 C 31.0625 180.636719 32.679688 161.503906 20.832031 152.449219 C 14.421875 147.546875 5.640625 147.011719 -1.3125 142.921875 C -5.945312 140.195312 -9.410156 136.140625 -12.242188 131.546875 L -12.242188 382.460938 L 236.507812 382.460938 C 234.039062 379.390625 231.28125 375.414062 229.386719 374.109375 Z M 229.386719 374.109375 " fill-opacity="1" fill-rule="nonzero"/></g><g clip-path="url(#75575ac9f7)"><path fill="#2f4e30" d="M 203.378906 383.304688 C 199.199219 380.433594 194.363281 378.488281 189.328125 377.8125 C 182.847656 376.949219 176.164062 378.035156 169.777344 376.628906 C 161.832031 374.882812 154.882812 369.09375 151.730469 361.589844 C 149.949219 357.351562 149.285156 352.578125 146.613281 348.835938 C 138.339844 337.246094 118.28125 343.332031 107.734375 333.761719 C 101.140625 327.773438 100.542969 317.59375 102.050781 308.8125 C 104.578125 294.128906 111.574219 280.476562 113.878906 265.757812 C 116.183594 251.035156 112.027344 233.4375 98.601562 226.980469 C 89.875 222.78125 79.648438 224.347656 69.96875 224.390625 C 59.070312 224.429688 48.539062 222.488281 38.375 218.566406 C 33.359375 216.628906 28.410156 214.132812 24.777344 210.171875 C 15.21875 199.742188 16.75 181.59375 5.511719 173 C -0.570312 168.351562 -8.902344 167.84375 -15.5 163.960938 C -19.894531 161.375 -23.183594 157.53125 -25.871094 153.171875 L -25.871094 391.230469 L 210.132812 391.230469 C 207.792969 388.3125 205.175781 384.542969 203.378906 383.304688 Z M 203.378906 383.304688 " fill-opacity="1" fill-rule="nonzero"/></g><g clip-path="url(#727fb824fd)"><path fill="#2f4e30" d="M 371.640625 289.753906 L 371.640625 290.398438 C 354.160156 290.398438 330.636719 290.535156 330.636719 314.441406 L 330.636719 394.449219 L 330.003906 394.449219 L 330.003906 314.441406 C 330.003906 290.535156 306.480469 290.398438 289 290.398438 L 289 289.753906 C 327.21875 289.753906 330.003906 283.554688 330.003906 248.761719 L 330.636719 248.761719 C 330.636719 283.554688 333.417969 289.753906 371.640625 289.753906 " fill-opacity="1" fill-rule="evenodd"/></g><path fill="#2f4e30" d="M 374.578125 343.578125 L 374.578125 343.832031 C 367.527344 343.832031 358.042969 343.890625 358.042969 353.53125 L 358.042969 385.816406 L 357.785156 385.816406 L 357.785156 353.53125 C 357.785156 343.890625 348.292969 343.832031 341.242188 343.832031 L 341.242188 343.578125 C 356.664062 343.578125 357.785156 341.074219 357.785156 327.035156 L 358.042969 327.035156 C 358.042969 341.074219 359.15625 343.578125 374.578125 343.578125 " fill-opacity="1" fill-rule="evenodd"/><g clip-path="url(#456258fd30)"><path fill="#2f4e30" d="M 6.847656 74.820312 L 6.847656 74.320312 C 20.339844 74.320312 38.496094 74.214844 38.496094 55.765625 L 38.496094 -5.988281 L 38.988281 -5.988281 L 38.988281 55.765625 C 38.988281 74.214844 57.140625 74.320312 70.632812 74.320312 L 70.632812 74.820312 C 41.132812 74.820312 38.988281 79.601562 38.988281 106.460938 L 38.496094 106.460938 C 38.496094 79.601562 36.351562 74.820312 6.847656 74.820312 " fill-opacity="1" fill-rule="evenodd"/></g><g clip-path="url(#f4c71f7219)"><path fill="#2f4e30" d="M 4.582031 33.273438 L 4.582031 33.082031 C 10.023438 33.082031 17.34375 33.035156 17.34375 25.59375 L 17.34375 0.675781 L 17.542969 0.675781 L 17.542969 25.59375 C 17.542969 33.035156 24.871094 33.082031 30.3125 33.082031 L 30.3125 33.273438 C 18.410156 33.273438 17.542969 35.207031 17.542969 46.042969 L 17.34375 46.042969 C 17.34375 35.207031 16.484375 33.273438 4.582031 33.273438 " fill-opacity="1" fill-rule="evenodd"/></g></svg>